<?xml version="1.0" standalone="no"?>
<!DOCTYPE svg PUBLIC "-//W3C//DTD SVG 20010904//EN"
 "http://www.w3.org/TR/2001/REC-SVG-20010904/DTD/svg10.dtd">
<svg version="1.0" xmlns="http://www.w3.org/2000/svg"
 width="720.000000pt" height="720.000000pt" viewBox="0 0 720.000000 720.000000"
 preserveAspectRatio="xMidYMid meet">

<g transform="translate(0.000000,720.000000) scale(0.100000,-0.100000)"
fill="#fff" stroke="none">
<path d="M2260 6095 l0 -745 -25 0 c-14 0 -25 4 -25 9 0 5 -9 13 -20 16 -11 4
-18 11 -15 16 4 5 -3 9 -14 9 -12 0 -21 4 -21 9 0 5 -10 11 -22 13 -13 2 -22
9 -21 16 2 6 -6 12 -17 12 -11 0 -20 5 -20 10 0 6 -9 10 -20 10 -11 0 -23 7
-26 15 -4 8 -15 15 -25 15 -10 0 -19 5 -19 10 0 6 -7 10 -15 10 -8 0 -15 5
-15 10 0 6 -9 10 -20 10 -11 0 -23 7 -26 15 -4 8 -15 15 -25 15 -10 0 -19 4
-19 9 0 5 -9 11 -21 14 -12 3 -18 10 -14 16 4 7 -4 11 -19 11 -14 0 -26 5 -26
10 0 6 -7 10 -15 10 -9 0 -18 7 -21 15 -4 8 -13 15 -21 15 -8 0 -21 6 -28 13
-35 31 -45 37 -60 37 -8 0 -15 5 -15 10 0 6 -9 10 -20 10 -11 0 -20 7 -20 15
0 8 -9 15 -20 15 -11 0 -20 5 -20 10 0 6 -7 10 -15 10 -9 0 -18 7 -21 15 -4 8
-15 15 -25 15 -10 0 -19 5 -19 10 0 6 -8 10 -18 10 -9 0 -29 11 -44 25 -15 14
-34 25 -41 25 -8 0 -20 7 -27 15 -7 8 -19 15 -26 15 -8 0 -14 5 -14 10 0 6 -7
10 -15 10 -8 0 -15 5 -15 10 0 6 -14 10 -30 10 l-30 0 0 -2805 1 -2805 2413 0
2413 0 2 1054 c1 951 0 1056 -15 1070 -8 9 -20 16 -25 16 -6 0 -7 4 -4 10 3 6
-3 10 -14 10 -12 0 -21 5 -21 10 0 6 -7 10 -15 10 -8 0 -15 7 -15 15 0 8 -4
15 -10 15 -15 0 -50 33 -44 42 3 4 -4 8 -15 8 -24 0 -62 30 -55 42 3 4 0 8 -7
8 -6 0 -22 11 -35 25 -13 14 -30 25 -39 25 -8 0 -15 5 -15 10 0 6 -7 10 -15
10 -8 0 -15 7 -15 15 0 8 -6 15 -13 15 -7 0 -21 11 -31 25 -10 14 -25 25 -32
25 -8 0 -14 5 -14 10 0 6 -5 10 -11 10 -6 0 -23 12 -38 28 -46 45 -81 72 -91
72 -6 0 -10 5 -10 10 0 6 -7 10 -15 10 -8 0 -15 7 -15 15 0 8 -7 15 -15 15 -8
0 -15 4 -15 9 0 5 -9 13 -20 16 -62 20 7 25 330 25 l350 0 0 790 0 790 -25 0
c-14 0 -25 5 -25 10 0 6 -9 10 -20 10 -11 0 -20 7 -20 15 0 8 -9 15 -20 15
-11 0 -20 5 -20 10 0 6 -7 10 -15 10 -9 0 -18 7 -21 15 -4 8 -15 15 -25 15
-10 0 -19 5 -19 10 0 6 -8 10 -19 10 -10 0 -30 11 -45 25 -15 14 -33 25 -40
25 -8 0 -19 7 -26 15 -7 8 -19 15 -27 15 -8 0 -11 5 -8 10 3 6 -3 10 -14 10
-12 0 -21 5 -21 10 0 6 -9 10 -20 10 -11 0 -23 7 -26 15 -4 8 -15 15 -25 15
-10 0 -19 4 -19 9 0 5 -9 11 -21 14 -12 3 -18 10 -14 16 4 7 -4 11 -19 11 -14
0 -26 4 -26 9 0 5 -9 13 -20 16 -11 4 -18 11 -15 16 4 5 -5 9 -19 9 -14 0 -26
5 -26 10 0 6 -9 10 -20 10 -11 0 -20 7 -20 15 0 8 -9 15 -20 15 -11 0 -20 5
-20 10 0 6 -9 10 -20 10 -11 0 -20 7 -20 15 0 8 -9 15 -20 15 -11 0 -20 3 -20
8 0 4 -18 15 -40 25 -22 9 -40 21 -40 27 0 5 -8 10 -19 10 -10 0 -30 11 -45
25 -15 14 -34 25 -42 25 -7 0 -14 4 -14 9 0 5 -11 12 -25 15 -14 4 -23 11 -20
16 3 6 -3 10 -14 10 -12 0 -21 4 -21 9 0 5 -10 11 -22 13 -13 2 -22 9 -20 16
1 7 -9 12 -23 12 -14 0 -25 5 -25 10 0 6 -7 10 -15 10 -8 0 -15 7 -15 15 0 9
-9 15 -25 15 -14 0 -25 4 -25 9 0 5 -9 11 -21 14 -12 3 -18 10 -14 16 4 7 -4
11 -19 11 -14 0 -26 5 -26 10 0 6 -7 10 -15 10 -9 0 -18 7 -21 15 -4 8 -12 15
-20 15 -8 0 -14 5 -14 10 0 6 -11 10 -25 10 -16 0 -25 6 -25 15 0 8 -9 15 -20
15 -11 0 -20 3 -20 8 0 4 -18 15 -40 25 -22 9 -40 21 -40 27 0 5 -9 10 -20 10
-11 0 -20 5 -20 10 0 6 -7 10 -15 10 -9 0 -18 7 -21 15 -4 8 -15 15 -25 15
-10 0 -19 4 -19 9 0 5 -11 12 -25 15 -14 4 -23 11 -20 16 3 6 -3 10 -14 10
-12 0 -21 4 -21 9 0 5 -10 11 -22 13 -13 2 -22 9 -20 16 1 6 -7 12 -18 12 -11
0 -20 5 -20 10 0 6 -9 10 -20 10 -11 0 -20 7 -20 15 0 9 -9 15 -25 15 -14 0
-25 5 -25 10 0 6 -7 10 -15 10 -8 0 -15 7 -15 15 0 9 -9 15 -25 15 -14 0 -25
5 -25 10 0 6 -7 10 -15 10 -9 0 -26 11 -39 25 -13 14 -32 25 -44 25 -11 0 -22
7 -26 15 -3 8 -12 15 -21 15 -8 0 -15 3 -15 8 0 4 -18 15 -40 25 -22 9 -40 21
-40 27 0 5 -9 10 -20 10 -11 0 -20 5 -20 10 0 6 -7 10 -15 10 -9 0 -18 7 -21
15 -4 8 -15 15 -25 15 -10 0 -19 5 -19 10 0 6 -7 10 -15 10 -9 0 -18 7 -21 15
-4 8 -14 15 -24 15 -10 0 -20 5 -22 11 -2 5 -12 12 -23 13 -11 2 -19 9 -18 15
2 6 -6 11 -17 11 -11 0 -20 5 -20 10 0 6 -9 10 -20 10 -11 0 -20 7 -20 15 0 9
-9 15 -25 15 -14 0 -25 5 -25 10 0 6 -7 10 -15 10 -8 0 -15 7 -15 15 0 9 -10
15 -26 15 -14 0 -23 4 -19 10 3 6 -4 10 -16 10 -12 0 -32 11 -45 25 -13 14
-30 25 -39 25 -9 0 -23 6 -30 13 -33 29 -45 37 -55 37 -5 0 -10 5 -10 10 0 6
-11 10 -25 10 -16 0 -25 6 -25 15 0 8 -9 15 -20 15 -11 0 -20 5 -20 10 0 6 -7
10 -15 10 -9 0 -18 7 -21 15 -4 8 -15 15 -25 15 -10 0 -19 4 -19 9 0 5 -9 11
-21 14 -12 3 -18 10 -14 16 4 7 -4 11 -19 11 -14 0 -26 4 -26 9 0 5 -10 11
-22 13 -13 2 -22 9 -20 16 1 6 -7 12 -18 12 -11 0 -20 5 -20 10 0 6 -9 10 -20
10 -11 0 -20 7 -20 15 0 9 -9 15 -25 15 -14 0 -25 5 -25 10 0 6 -7 10 -15 10
-8 0 -15 4 -15 9 0 5 -10 11 -22 13 -13 2 -22 9 -20 16 1 6 -4 12 -11 12 -23
0 -67 25 -67 38 0 6 -11 12 -25 12 -14 0 -25 4 -25 9 0 5 -9 13 -20 16 -11 4
-18 11 -15 16 4 5 0 9 -8 9 -19 0 -60 21 -81 43 -11 10 -33 17 -57 17 l-39 0
0 -745z m675 -385 c3 -5 -1 -10 -9 -10 -9 0 -16 5 -16 10 0 6 4 10 9 10 6 0
13 -4 16 -10z m45 -29 c0 -5 9 -11 21 -14 12 -3 18 -10 14 -16 -4 -7 4 -11 19
-11 14 0 26 -4 26 -10 0 -5 9 -10 20 -10 11 0 20 -7 20 -15 0 -8 9 -15 20 -15
11 0 20 -4 20 -10 0 -5 9 -10 20 -10 11 0 20 -7 20 -15 0 -8 9 -15 20 -15 11
0 20 -3 20 -8 0 -4 18 -15 40 -25 22 -9 40 -21 40 -27 0 -5 9 -10 20 -10 11 0
20 -4 20 -10 0 -5 7 -10 15 -10 9 0 18 -7 21 -15 4 -8 15 -15 25 -15 10 0 19
-4 19 -10 0 -5 11 -12 25 -16 14 -3 22 -10 19 -15 -3 -5 4 -9 15 -9 12 0 21
-4 21 -9 0 -5 10 -11 23 -13 12 -2 21 -9 19 -16 -1 -7 9 -12 23 -12 14 0 25
-4 25 -10 0 -5 7 -10 15 -10 8 0 15 -7 15 -15 0 -9 9 -15 25 -15 14 0 25 -4
25 -9 0 -5 9 -11 21 -14 12 -3 18 -10 14 -16 -4 -7 4 -11 19 -11 14 0 26 -4
26 -10 0 -5 9 -10 20 -10 11 0 20 -7 20 -15 0 -8 9 -15 20 -15 11 0 20 -4 20
-10 0 -5 7 -10 15 -10 9 0 23 -6 31 -12 8 -7 20 -18 27 -23 7 -6 29 -19 50
-28 20 -10 37 -22 37 -27 0 -6 9 -10 20 -10 11 0 20 -4 20 -10 0 -5 7 -10 15
-10 9 0 18 -7 21 -15 4 -8 15 -15 25 -15 10 0 19 -4 19 -10 0 -5 11 -12 25
-16 14 -3 22 -10 19 -15 -3 -5 4 -9 15 -9 12 0 21 -4 21 -9 0 -5 10 -11 23
-13 12 -2 21 -9 20 -16 -2 -7 8 -12 22 -12 14 0 25 -4 25 -10 0 -5 7 -10 15
-10 8 0 15 -7 15 -15 0 -9 9 -15 25 -15 14 0 25 -4 25 -9 0 -5 9 -11 21 -14
12 -3 18 -10 14 -16 -4 -7 4 -11 19 -11 14 0 26 -4 26 -10 0 -5 9 -10 19 -10
10 0 21 -7 25 -15 3 -8 12 -15 21 -15 8 0 15 -4 15 -10 0 -5 9 -10 20 -10 11
0 20 -7 20 -15 0 -8 9 -15 20 -15 11 0 20 -3 20 -8 0 -4 18 -15 40 -25 22 -9
40 -21 40 -27 0 -5 9 -10 20 -10 11 0 20 -4 20 -10 0 -5 7 -10 15 -10 9 0 18
-7 21 -15 4 -8 15 -15 25 -15 10 0 19 -4 19 -9 0 -5 11 -12 25 -15 14 -4 23
-11 20 -16 -3 -6 3 -10 14 -10 12 0 21 -4 21 -9 0 -5 10 -11 23 -13 12 -2 21
-9 19 -16 -1 -7 9 -12 23 -12 14 0 25 -4 25 -10 0 -5 7 -10 15 -10 8 0 15 -7
15 -15 0 -9 9 -15 25 -15 14 0 25 -4 25 -10 0 -5 7 -10 15 -10 9 0 18 -7 21
-15 4 -8 15 -15 25 -15 10 0 19 -4 19 -10 0 -5 9 -10 20 -10 11 0 20 -4 20 -9
0 -5 9 -13 20 -16 11 -4 18 -11 15 -16 -4 -5 5 -9 19 -9 14 0 26 -4 26 -10 0
-5 9 -10 20 -10 11 0 23 -7 26 -15 4 -8 15 -15 26 -15 12 0 31 -11 44 -26 23
-24 24 -31 24 -185 0 -99 -4 -159 -10 -159 -6 0 -10 -40 -10 -100 l0 -100
-555 0 -555 0 0 -325 0 -326 28 -26 c15 -14 37 -29 50 -34 13 -5 20 -13 17
-19 -3 -5 1 -10 9 -10 9 0 16 -4 16 -10 0 -5 7 -10 15 -10 8 0 15 -7 15 -15 0
-8 7 -15 15 -15 8 0 15 -4 15 -10 0 -5 9 -10 20 -10 11 0 20 -7 20 -15 0 -8 5
-15 11 -15 6 0 26 -16 45 -35 18 -19 39 -35 45 -35 7 0 22 -11 35 -25 13 -14
25 -25 28 -25 12 0 45 -34 40 -42 -3 -4 4 -8 15 -8 12 0 21 -4 21 -10 0 -5 7
-10 15 -10 8 0 15 -7 15 -15 0 -8 4 -15 10 -15 15 0 50 -33 44 -42 -3 -4 4 -8
15 -8 24 0 62 -30 55 -42 -3 -4 2 -8 10 -8 9 0 16 -4 16 -10 0 -5 6 -10 14
-10 8 0 16 -7 20 -15 3 -8 12 -15 21 -15 8 0 15 -4 15 -10 0 -5 5 -10 11 -10
6 0 29 -18 50 -40 22 -22 43 -40 49 -40 5 0 10 -4 10 -10 0 -5 5 -10 10 -10 6
0 30 -18 52 -40 23 -22 48 -40 56 -40 7 0 10 -4 7 -10 -3 -5 1 -10 9 -10 9 0
16 -4 16 -10 0 -5 7 -10 15 -10 8 0 15 -7 15 -15 0 -8 7 -15 15 -15 8 0 15 -4
15 -9 0 -5 9 -13 20 -16 11 -4 18 -11 15 -16 -4 -5 3 -9 14 -9 12 0 21 -6 21
-12 0 -7 0 -267 0 -578 l0 -565 -1765 0 -1765 0 0 1443 c0 961 -3 1442 -10
1442 -6 0 -10 84 -10 235 0 158 3 235 11 235 7 0 9 75 7 235 -3 213 2 264 18
220 4 -8 15 -15 25 -15 10 0 19 -4 19 -10 0 -5 9 -10 19 -10 10 0 21 -7 25
-15 3 -8 12 -15 21 -15 8 0 15 -4 15 -10 0 -5 7 -10 15 -10 15 0 25 -6 60 -37
7 -7 21 -13 29 -13 9 0 16 -4 16 -10 0 -5 9 -10 20 -10 11 0 20 -7 20 -15 0
-8 7 -15 15 -15 20 0 76 -35 68 -43 -3 -4 3 -7 15 -7 17 0 22 -6 22 -25 0 -14
4 -25 10 -25 15 0 50 -33 44 -42 -3 -4 7 -8 21 -8 27 0 55 -20 55 -39 0 -6 11
-11 25 -11 14 0 25 -4 25 -10 0 -5 11 -10 25 -10 14 0 25 -5 25 -11 0 -17 27
-39 49 -39 12 0 21 -4 21 -10 0 -5 11 -10 25 -10 16 0 25 -6 25 -15 0 -8 7
-15 15 -15 8 0 15 -4 15 -9 0 -5 10 -11 23 -13 12 -2 21 -9 20 -16 -2 -8 10
-12 33 -12 26 0 43 -7 60 -25 15 -16 34 -25 54 -25 16 0 30 -4 30 -10 0 -5 16
-10 35 -10 24 0 35 -5 35 -15 0 -8 9 -15 20 -15 11 0 20 -4 20 -10 0 -5 7 -10
15 -10 9 0 18 -7 21 -15 4 -8 15 -15 25 -15 10 0 19 -4 19 -10 0 -5 11 -10 25
-10 16 0 25 -6 25 -15 0 -8 7 -15 15 -15 8 0 15 -4 15 -10 0 -5 9 -10 20 -10
11 0 23 -7 26 -15 4 -8 15 -15 26 -15 10 0 30 -11 44 -25 14 -14 29 -25 35
-25 6 0 7 -4 4 -10 -3 -5 -1 -10 4 -10 17 0 13 -67 -4 -74 -13 -5 -15 -113
-15 -891 l0 -885 -172 0 -173 0 3 530 3 530 -336 0 -335 0 2 -862 3 -863 835
0 835 0 3 1233 c2 1091 0 1232 -13 1232 -13 0 -15 24 -15 160 0 136 2 160 15
160 11 0 15 12 15 50 0 47 -2 50 -25 50 -16 0 -25 6 -25 15 0 8 -7 15 -15 15
-8 0 -15 5 -15 10 0 6 -7 10 -15 10 -8 0 -15 4 -15 9 0 5 -10 11 -22 13 -13 2
-22 9 -21 16 2 7 -8 12 -22 12 -14 0 -25 5 -25 10 0 6 -7 10 -15 10 -8 0 -15
6 -15 13 0 7 -16 19 -35 27 -19 8 -35 20 -35 27 0 7 -11 13 -25 13 -14 0 -25
4 -25 9 0 5 -9 13 -20 16 -11 4 -18 11 -15 16 4 5 -3 9 -14 9 -12 0 -21 4 -21
9 0 5 -10 11 -22 13 -13 2 -22 9 -21 16 2 6 -6 12 -17 12 -11 0 -20 4 -20 9 0
5 -10 11 -22 13 -13 2 -22 9 -21 16 2 7 -8 12 -22 12 -14 0 -25 5 -25 10 0 6
-7 10 -15 10 -9 0 -18 7 -21 15 -4 8 -15 15 -25 15 -10 0 -19 5 -19 10 0 6 -9
10 -20 10 -11 0 -20 4 -20 9 0 5 -9 11 -21 14 -12 3 -18 10 -14 16 3 7 -2 11
-15 11 -19 0 -29 6 -65 38 -7 6 -21 12 -29 12 -9 0 -16 5 -16 10 0 6 -9 10
-20 10 -11 0 -20 7 -20 15 0 8 -9 15 -20 15 -11 0 -20 5 -20 10 0 6 -9 10 -20
10 -11 0 -20 7 -20 15 0 9 -9 15 -22 15 -17 0 -19 3 -10 12 9 9 12 107 12 380
l0 368 25 0 c14 0 25 -4 25 -9z"/>
</g>
</svg>
